<?xml version="1.0" standalone="no"?><!DOCTYPE svg PUBLIC "-//W3C//DTD SVG 1.1//EN" "http://www.w3.org/Graphics/SVG/1.1/DTD/svg11.dtd"><svg t="1724639059756" class="icon" viewBox="0 0 1024 1024" version="1.1" xmlns="http://www.w3.org/2000/svg" p-id="12179" xmlns:xlink="http://www.w3.org/1999/xlink" width="200" height="200"><path d="M514.864 724.818c-31.559 0-57.15 8.585-57.15 19.201 0 10.597 25.594 19.19 57.15 19.19 31.561 0 57.143-8.592 57.143-19.19 0-10.616-25.584-19.201-57.143-19.201z m314.863-589.095C688.537-18.91 392.723-9.943 269.472 86.423-19.622 303.801-12.902 760.97 83.461 881.99c201.697 242.02 345.118 56.02 345.118 56.02 87.403 51.543 159.112 11.21 201.697-4.477 98.607 197.21 282.368-44.823 324.942-152.39 91.885-291.332 15.688-490.792-125.49-645.42zM88.301 531.645l78.08 5.226s-9.777 227.416 198.643 390.092C282.403 1042.515 3.847 860.478 88.3 531.645z m528.53 345.856c-80.678 40.346-150.15 53.793-235.308-11.2-85.164-64.989-164.203-202.876-174.627-338.25 0 0 286.18 80.796 492.35-145.548 11.207 26.897 29.636 89.38 112.554 154.367 0 87.399-20.168 224.1-194.97 340.631z m84.212 74.619c-20.169 6.732-10.263-65.65 18.87-92.547C749.05 832.69 864.56 736.492 853.78 512.423c-2.18-45.325-108.048-73.585-125.783-194.608-33.623 11.21-234.418 212.33-449.566 167.507 0 0 198.033-89.691 226.348-159.105 4.753-28.168-26.55-38.95-91.878 15.685C306.146 431.18 193.192 485.795 90.099 472.348c0 0 91.642-416.88 434.849-404.302 216.558 0.272 322.284 94.002 409.693 345.004 47.052 170.313-37.737 542.664-233.598 539.07z" p-id="12180"></path></svg>