<?xml version="1.0" standalone="no"?><!DOCTYPE svg PUBLIC "-//W3C//DTD SVG 1.1//EN" "http://www.w3.org/Graphics/SVG/1.1/DTD/svg11.dtd"><svg t="1724639091824" class="icon" viewBox="0 0 1024 1024" version="1.1" xmlns="http://www.w3.org/2000/svg" p-id="14399" xmlns:xlink="http://www.w3.org/1999/xlink" width="200" height="200"><path d="M372.906667 565.930667a131.925333 131.925333 0 0 1-89.088-229.205334 463.872 463.872 0 0 0 11.776-102.4 266.922667 266.922667 0 0 0-10.922667-76.117333A57.002667 57.002667 0 0 1 290.133333 114.517333a57.856 57.856 0 0 1 34.133334-27.989333l74.752-21.674667A57.856 57.856 0 0 1 470.357333 102.4a450.56 450.56 0 0 0 32.938667 80.042667A217.6 217.6 0 0 0 563.2 242.517333a131.925333 131.925333 0 0 1-7.168 263.68 130.048 130.048 0 0 1-63.146667-16.042666 132.778667 132.778667 0 0 1-119.978666 75.776z m42.325333-454.144a6.656 6.656 0 0 0-2.56 0L337.92 133.802667a9.216 9.216 0 0 0-5.461333 4.266666 7.850667 7.850667 0 0 0 0 6.144 321.536 321.536 0 0 1 12.970666 90.282667 515.413333 515.413333 0 0 1-15.018666 121.514667 24.746667 24.746667 0 0 1-8.533334 13.312 82.773333 82.773333 0 1 0 133.632 76.8 24.576 24.576 0 0 1 41.642667-13.653334 82.944 82.944 0 1 0 59.562667-141.141333h-1.536a23.893333 23.893333 0 0 1-13.994667-4.437333A278.016 278.016 0 0 1 460.8 207.530667a492.885333 492.885333 0 0 1-37.205333-89.6 8.704 8.704 0 0 0-8.362667-6.144zM549.717333 955.733333h-91.818666a55.466667 55.466667 0 0 1-55.296-55.466666V768l-53.930667-104.96a55.466667 55.466667 0 0 1 49.322667-80.725333h44.032a70.826667 70.826667 0 0 1 58.709333-26.453334 71.509333 71.509333 0 0 1 58.88 26.453334h50.005333a55.466667 55.466667 0 0 1 49.322667 80.725333L605.184 768v131.925333A55.637333 55.637333 0 0 1 549.717333 955.733333z m-151.722666-324.266666a6.144 6.144 0 0 0-5.461334 2.901333 6.314667 6.314667 0 0 0 0 6.144L449.024 750.933333a25.941333 25.941333 0 0 1 2.56 11.264v137.898667a6.144 6.144 0 0 0 6.144 6.314667h91.818667a6.314667 6.314667 0 0 0 6.314666-6.314667v-137.728a23.893333 23.893333 0 0 1 2.730667-11.264l56.490667-110.250667a6.144 6.144 0 0 0-5.632-9.045333h-66.218667a24.576 24.576 0 0 1-24.405333-21.333333 27.989333 27.989333 0 0 0-18.090667-5.12 28.672 28.672 0 0 0-18.090667 5.12A24.576 24.576 0 0 1 458.24 631.466667z" p-id="14400"></path><path d="M815.274667 546.133333H716.8a17.066667 17.066667 0 0 1 0-32.768h98.304a17.066667 17.066667 0 1 1 0 32.768zM707.413333 489.813333a16.042667 16.042667 0 0 1-11.605333-4.778666 17.066667 17.066667 0 0 1 0-23.210667L765.269333 392.533333a17.066667 17.066667 0 0 1 23.210667 23.210667l-69.461333 69.461333a16.042667 16.042667 0 0 1-11.605334 4.608zM776.874667 671.061333a17.066667 17.066667 0 0 1-11.605334-4.778666L695.808 597.333333a17.066667 17.066667 0 0 1 23.210667-23.210666l69.461333 69.632a17.066667 17.066667 0 0 1 0 23.04 16.042667 16.042667 0 0 1-11.605333 4.266666z" opacity=".6" p-id="14401"></path></svg>