<?xml version="1.0" standalone="no"?><!DOCTYPE svg PUBLIC "-//W3C//DTD SVG 1.1//EN" "http://www.w3.org/Graphics/SVG/1.1/DTD/svg11.dtd"><svg t="1724638963565" class="icon" viewBox="0 0 1024 1024" version="1.1" xmlns="http://www.w3.org/2000/svg" p-id="10042" xmlns:xlink="http://www.w3.org/1999/xlink" width="200" height="200"><path d="M438.903467 112.1792a34.133333 34.133333 0 0 1 66.696533 14.574933c-19.797333 90.692267-4.471467 161.792 50.8928 225.28l4.232533 4.7616c50.5856 55.637333 27.0336 128.477867-40.516266 180.6848-61.44 47.4624-148.155733 70.741333-224.3584 54.971734-138.001067-28.552533-188.757333 20.445867-193.1776 134.280533-1.143467 29.7984 1.160533 61.047467 6.280533 97.1776l2.1504 14.4384 5.034667 30.976c2.167467 13.431467 3.054933 20.394667 3.054933 26.743467a34.133333 34.133333 0 0 1-68.181333 2.56l-0.085334-2.56c0-1.0752-0.546133-5.393067-1.706666-12.9024L44.373333 853.589333c-0.512-3.242667-1.006933-6.3488-1.467733-9.489066-6.724267-44.288-9.898667-82.432-8.465067-119.995734 5.922133-153.002667 92.296533-236.373333 275.217067-198.485333 55.773867 11.537067 122.4704-6.365867 168.789333-42.154667 40.0384-30.941867 49.732267-60.962133 31.744-80.759466-74.325333-81.749333-96.136533-176.7936-71.304533-290.525867z" fill="#444444" p-id="10043"></path><path d="M588.066133 110.711467a34.133333 34.133333 0 1 1 64.699734 21.742933c-13.175467 39.2192-4.778667 85.486933 27.921066 130.235733l3.720534 4.983467 1.621333-0.6656c62.395733-24.5248 145.066667-21.8112 203.178667 18.653867l4.539733 3.2768c131.4816 98.389333 124.245333 310.818133 2.474667 466.568533-125.166933 160.085333-362.052267 211.217067-493.0048 143.36-34.8672-18.056533-63.249067-40.482133-86.749867-66.9184-17.595733-19.797333-41.762133-58.641067-54.545067-80.349867l-2.901333-4.983466-0.6144 0.853333c-14.7456 22.016-23.074133 82.090667-15.6672 147.490133l0.648533 5.307734a34.133333 34.133333 0 0 1-67.7376 8.533333c-14.557867-115.575467 5.461333-219.272533 77.346134-236.373333 22.084267-5.2736 40.106667 3.976533 53.777066 21.1968l3.242667 5.239466c10.0352 16.7936 40.567467 68.693333 57.480533 87.722667 18.0736 20.3264 39.850667 37.546667 67.1232 51.677867 101.853867 52.753067 302.933333 9.352533 407.825067-124.808534 100.693333-128.785067 106.461867-297.984 10.410667-369.851733-43.1104-32.238933-116.7872-30.071467-159.573334-4.420267a34.133333 34.133333 0 0 1-42.376533-5.8368c-65.5872-69.495467-86.7328-151.586133-62.839467-222.634666z" fill="#444444" p-id="10044"></path><path d="M769.706667 580.266667a34.133333 34.133333 0 0 1 29.525333 51.268266l0.221867 0.136534c-41.233067 77.585067-116.462933 125.2864-209.2032 135.185066l-6.485334 0.631467-5.922133-68.010667c71.253333-6.1952 127.010133-39.560533 158.5152-94.754133l1.706667-3.1744A34.133333 34.133333 0 0 1 769.706667 580.266667z" fill="#00B386" p-id="10045"></path></svg>