<?xml version="1.0" standalone="no"?><!DOCTYPE svg PUBLIC "-//W3C//DTD SVG 1.1//EN" "http://www.w3.org/Graphics/SVG/1.1/DTD/svg11.dtd"><svg t="1724639029168" class="icon" viewBox="0 0 1024 1024" version="1.1" xmlns="http://www.w3.org/2000/svg" p-id="11148" xmlns:xlink="http://www.w3.org/1999/xlink" width="200" height="200"><path d="M494.933333 493.056a17.066667 17.066667 0 1 0-17.066666-17.066667 17.066667 17.066667 0 0 0 17.066666 17.066667zM566.442667 474.112a13.482667 13.482667 0 0 0-13.482667 13.482667 13.482667 13.482667 0 0 0 13.482667 13.653333 13.653333 13.653333 0 0 0 13.653333-13.653333 13.482667 13.482667 0 0 0-13.653333-13.482667zM532.309333 610.645333a13.482667 13.482667 0 0 0-13.482666 13.482667 13.482667 13.482667 0 0 0 13.482666 13.653333 13.653333 13.653333 0 0 0 13.653334-13.653333 13.482667 13.482667 0 0 0-13.653334-13.482667zM535.552 433.664a13.482667 13.482667 0 0 0 13.653333-13.482667 13.653333 13.653333 0 0 0-13.653333-13.653333 13.482667 13.482667 0 0 0-13.482667 13.653333 13.482667 13.482667 0 0 0 13.482667 13.482667zM424.618667 571.221333a13.482667 13.482667 0 0 0 13.482666-13.653333 13.482667 13.482667 0 0 0-13.482666-13.482667 13.482667 13.482667 0 0 0-13.653334 13.482667 13.824 13.824 0 0 0 13.653334 13.653333zM492.885333 571.221333a13.482667 13.482667 0 0 0 13.482667-13.653333 13.482667 13.482667 0 0 0-13.482667-13.482667 13.482667 13.482667 0 0 0-13.653333 13.482667 13.824 13.824 0 0 0 13.653333 13.653333z" opacity=".6" p-id="11149"></path><path d="M728.405333 558.421333L474.965333 305.152l102.4-102.4a179.2 179.2 0 0 1 253.610667 253.098667zM547.328 305.152l181.077333 180.906667 66.389334-66.389334A128 128 0 0 0 614.4 238.933333zM317.952 894.464a179.2 179.2 0 0 1-126.634667-305.834667l102.4-102.4 253.610667 253.269334-102.4 102.4a178.688 178.688 0 0 1-126.976 52.565333z m-24.064-336.042667l-66.389333 66.389334a128 128 0 0 0 181.077333 181.077333l66.389333-66.389333z" opacity=".6" p-id="11150"></path><path d="M704.170667 894.464a178.005333 178.005333 0 0 1-126.634667-52.394667L191.317333 455.850667a179.2 179.2 0 0 1 253.44-253.44l386.218667 386.218666a179.2 179.2 0 0 1-126.805333 305.834667zM317.952 201.216a128 128 0 0 0-90.453333 218.453333L614.4 805.888a128 128 0 0 0 180.394667-181.077333L408.576 238.933333a127.317333 127.317333 0 0 0-90.624-37.717333z" p-id="11151"></path><path d="M349.779708 433.317837m36.203867-36.203867l0 0q36.203867-36.203867 72.407734 0l168.95138 168.95138q36.203867 36.203867 0 72.407734l0 0q-36.203867 36.203867-72.407734 0l-168.95138-168.95138q-36.203867-36.203867 0-72.407734Z" opacity=".4" p-id="11152"></path></svg>